<svg width="369.655" height="148.627" viewBox="0 0 369.655 148.627" xmlns="http://www.w3.org/2000/svg">
  <defs id="SvgjsDefs1671"></defs>
<g id="SvgjsG1672" featurekey="HdFLvg-0" transform="matrix(1.694235497338123,0,0,1.694235497338123,-54.45997286834481,-10.206074920336656)" fill="#72efdd"><path xmlns="http://www.w3.org/2000/svg" d="M52.094,93.749c0.001,0,11.108-7.41,0.883-22.909c-4.773-7.235-12.596-14.971-11.701-22.63  c-1.015,0.883-1.937,1.859-2.38,2.453c-1.618,2.169-2.791,4.529-3.392,6.964c-0.697,2.823-0.515,5.795,1.102,8.686  c1.501,2.683,4.107,5.103,6.558,7.537c5.868,5.826,11.036,12.018,9.461,18.607C52.541,92.811,52.5,93.478,52.094,93.749z"></path><path xmlns="http://www.w3.org/2000/svg" d="M59.398,79.14c0.001-0.001,17.835-11.897,1.417-36.782C53.152,30.742,40.592,18.321,42.03,6.024  c-1.365,1.194-3.11,2.985-3.821,3.939c-2.598,3.482-4.481,7.271-5.446,11.181c-1.12,4.533-0.827,9.304,1.77,13.946  c2.41,4.308,6.594,8.193,10.53,12.102c9.421,9.355,17.719,19.295,15.19,29.876C60.116,77.635,60.049,78.706,59.398,79.14z"></path></g>
  <g id="SvgjsG1673" featurekey="VomJeJ-0" transform="matrix(2.862771233261078,0,0,2.862771233261078,79.1411708141428,31.8845672877482)" fill="#72efdd"><path d="M0.3 18.82 q0.06 -0.66 0.41 -1.32 t0.83 -1.08 q2.14 1.3 4.06 1.3 q0.84 0 1.23 -0.38 t0.39 -0.94 q0 -0.94 -1.26 -1.48 l-2.36 -1 q-1.38 -0.62 -2.12 -1.49 t-0.74 -2.21 q0 -0.92 0.37 -1.68 t1.04 -1.32 t1.59 -0.87 t2.04 -0.31 q2.24 0 4.52 1.14 q-0.1 1.54 -1.08 2.4 q-2.04 -0.98 -3.6 -0.98 q-0.8 0 -1.2 0.36 t-0.4 0.82 q0 0.78 1.18 1.26 l2.4 1.02 q1.52 0.64 2.27 1.64 t0.75 2.32 q0 0.94 -0.34 1.72 t-1.01 1.35 t-1.67 0.89 t-2.34 0.32 q-2.6 0 -4.96 -1.48 z M20 16.02 l0.5 1.46 q0.4 1.32 0.96 1.7 q-0.88 0.98 -2.1 0.98 q-0.66 0 -1 -0.31 t-0.6 -1.09 l-0.6 -1.72 q-0.2 -0.62 -0.46 -0.83 t-0.7 -0.21 t-0.62 0.02 l0 3.98 q-0.66 0.12 -1.52 0.12 t-1.52 -0.12 l0 -14.58 l0.14 -0.14 l1.2 0 q0.94 0 1.32 0.42 t0.38 1.46 l0 6.28 l0.32 0 q0.36 0 0.56 -0.36 l1.04 -2 q0.56 -1.14 1.76 -1.14 q0.58 0 1.74 0.04 l0.12 0.16 l-1.54 2.98 q-0.4 0.76 -1.02 1.18 q1.2 0.44 1.64 1.72 z M26.3 12.32 l0 7.68 q-0.34 0.06 -0.74 0.09 t-0.82 0.03 t-0.83 -0.03 t-0.75 -0.09 l0 -6.62 q0 -1.16 -0.94 -1.16 l-0.3 0 q-0.12 -0.38 -0.12 -1.06 q0 -0.66 0.12 -1.12 q0.52 -0.04 0.96 -0.07 t0.8 -0.03 l0.44 0 q1.02 0 1.6 0.64 t0.58 1.74 z M22.8 6 q0.58 -0.32 1.5 -0.32 q0.94 0 1.46 0.32 q0.24 0.54 0.24 1.16 t-0.24 1.16 q-0.58 0.3 -1.52 0.3 t-1.44 -0.3 q-0.24 -0.54 -0.24 -1.16 t0.24 -1.16 z M32.56 17.72 l0.54 0 q0.24 0.66 0.24 1.32 t-0.06 0.86 q-1.2 0.2 -2.14 0.2 q-1.36 0 -1.93 -0.67 t-0.57 -2.11 l0 -11.9 l0.12 -0.14 l1.22 0 q0.94 0 1.32 0.42 t0.38 1.46 l0 9.62 q0 0.94 0.88 0.94 z M38.62 17.72 l0.54 0 q0.24 0.66 0.24 1.32 t-0.06 0.86 q-1.2 0.2 -2.14 0.2 q-1.36 0 -1.93 -0.67 t-0.57 -2.11 l0 -11.9 l0.12 -0.14 l1.22 0 q0.94 0 1.32 0.42 t0.38 1.46 l0 9.62 q0 0.94 0.88 0.94 z M44.57999999999999 19.32 q0.02 -0.52 0.27 -1.14 t0.59 -0.98 q1.6 0.84 2.78 0.84 q0.56 0 0.86 -0.19 t0.3 -0.51 q0 -0.6 -0.92 -0.9 l-1.1 -0.42 q-2.5 -0.92 -2.5 -3 q0 -1.52 1.05 -2.41 t2.83 -0.89 q0.88 0 1.94 0.25 t1.74 0.59 q0.04 0.56 -0.22 1.23 t-0.64 0.95 q-1.68 -0.76 -2.8 -0.76 q-0.4 0 -0.61 0.18 t-0.21 0.46 q0 0.48 0.76 0.76 l1.24 0.44 q2.66 0.94 2.66 3.22 q0 1.5 -1.1 2.38 t-3.14 0.88 t-3.78 -0.98 z M59.13999999999999 20.2 q-0.92 0 -1.84 -0.42 l0 2.66 q0 1.04 -0.38 1.46 t-1.34 0.42 l-1.2 0 l-0.14 -0.14 l0 -14.16 l0.14 -0.14 l0.82 0 q1.14 0 1.7 0.98 q1.14 -1.14 2.78 -1.14 q0.84 0 1.48 0.37 t1.09 1.05 t0.68 1.64 t0.23 2.16 t-0.31 2.18 t-0.85 1.66 t-1.27 1.05 t-1.59 0.37 z M58.75999999999999 12.219999999999999 q-0.84 0 -1.46 0.8 l0 4.4 q0.76 0.46 1.3 0.46 q1.36 0 1.36 -3.02 q0 -2.64 -1.2 -2.64 z M73.52 13.4 l0 4.1 q0 1.34 0.5 1.98 q-0.76 0.68 -1.84 0.68 q-1.04 0 -1.42 -0.48 t-0.38 -1.46 l0 -4.26 q0 -0.68 -0.18 -1 t-0.7 -0.32 q-0.3 0 -0.68 0.16 t-0.78 0.52 l0 6.68 q-0.66 0.12 -1.52 0.12 t-1.52 -0.12 l0 -14.58 l0.14 -0.14 l1.2 0 q0.96 0 1.33 0.42 t0.37 1.46 l0 3.78 q1.34 -1.1 2.68 -1.1 t2.07 0.97 t0.73 2.59 z M83.64 16.02 l-5.22 0 q0.04 0.9 0.46 1.4 t1.38 0.5 q0.48 0 1.11 -0.14 t1.45 -0.46 q0.66 0.68 0.82 1.84 q-1.6 1.14 -3.92 1.14 q-1.26 0 -2.11 -0.4 t-1.38 -1.12 t-0.75 -1.7 t-0.22 -2.14 q0 -1.12 0.27 -2.07 t0.82 -1.65 t1.4 -1.1 t1.99 -0.4 q0.96 0 1.73 0.32 t1.31 0.88 t0.83 1.34 t0.29 1.7 q0 1.22 -0.26 2.06 z M78.39999999999999 13.86 l2.64 0 l0 -0.22 q0 -0.74 -0.33 -1.22 t-0.99 -0.48 q-0.64 0 -0.95 0.45 t-0.37 1.47 z M85.19999999999999 11.46 q0.1 -0.4 0.38 -0.89 t0.56 -0.71 q1.84 0.14 2.56 1.82 q0.76 -1.8 2.5 -1.8 q0.52 0 1.32 0.16 q0 0.62 -0.21 1.47 t-0.57 1.45 q-0.34 -0.12 -1.02 -0.2 q-1 0 -1.64 1.02 l0 6.22 q-0.66 0.12 -1.55 0.12 t-1.57 -0.12 l0 -6.46 q0 -1.5 -0.76 -2.08 z M101.22 16.02 l-5.22 0 q0.04 0.9 0.46 1.4 t1.38 0.5 q0.48 0 1.11 -0.14 t1.45 -0.46 q0.66 0.68 0.82 1.84 q-1.6 1.14 -3.92 1.14 q-1.26 0 -2.11 -0.4 t-1.38 -1.12 t-0.75 -1.7 t-0.22 -2.14 q0 -1.12 0.27 -2.07 t0.82 -1.65 t1.4 -1.1 t1.99 -0.4 q0.96 0 1.73 0.32 t1.31 0.88 t0.83 1.34 t0.29 1.7 q0 1.22 -0.26 2.06 z M95.97999999999999 13.86 l2.64 0 l0 -0.22 q0 -0.74 -0.33 -1.22 t-0.99 -0.48 q-0.64 0 -0.95 0.45 t-0.37 1.47 z"></path></g>
</svg>